<?xml version="1.0"?>
<svg xmlns="http://www.w3.org/2000/svg" xmlns:xlink="http://www.w3.org/1999/xlink" xmlns:svgjs="http://svgjs.com/svgjs" version="1.1" width="512" height="512" x="0" y="0" viewBox="0 0 334.367 334.367" style="enable-background:new 0 0 512 512" xml:space="preserve"><g transform="matrix(0.7,0,0,0.7,50.15505065917969,50.15505409240724)">
<g xmlns="http://www.w3.org/2000/svg">
	<g>
		<g>
			<path d="M10.449,52.245h313.469c5.771,0,10.449-4.678,10.449-10.449s-4.678-10.449-10.449-10.449H10.449     C4.678,31.347,0,36.025,0,41.796S4.678,52.245,10.449,52.245z" fill="#7c7c7c" data-original="#000000" style=""/>
			<path d="M57.469,114.939c-5.771,0-10.449,4.678-10.449,10.449c0,5.771,4.678,10.449,10.449,10.449h219.429     c5.771,0,10.449-4.678,10.449-10.449c0-5.771-4.678-10.449-10.449-10.449H57.469z" fill="#7c7c7c" data-original="#000000" style=""/>
			<path d="M323.918,198.531H10.449C4.678,198.531,0,203.209,0,208.98s4.678,10.449,10.449,10.449h313.469     c5.771,0,10.449-4.678,10.449-10.449S329.689,198.531,323.918,198.531z" fill="#7c7c7c" data-original="#000000" style=""/>
			<path d="M237.714,282.122H96.653c-5.771,0-10.449,4.678-10.449,10.449s4.678,10.449,10.449,10.449h141.061     c5.771,0,10.449-4.678,10.449-10.449S243.485,282.122,237.714,282.122z" fill="#7c7c7c" data-original="#000000" style=""/>
		</g>
	</g>
</g>
<g xmlns="http://www.w3.org/2000/svg">
</g>
<g xmlns="http://www.w3.org/2000/svg">
</g>
<g xmlns="http://www.w3.org/2000/svg">
</g>
<g xmlns="http://www.w3.org/2000/svg">
</g>
<g xmlns="http://www.w3.org/2000/svg">
</g>
<g xmlns="http://www.w3.org/2000/svg">
</g>
<g xmlns="http://www.w3.org/2000/svg">
</g>
<g xmlns="http://www.w3.org/2000/svg">
</g>
<g xmlns="http://www.w3.org/2000/svg">
</g>
<g xmlns="http://www.w3.org/2000/svg">
</g>
<g xmlns="http://www.w3.org/2000/svg">
</g>
<g xmlns="http://www.w3.org/2000/svg">
</g>
<g xmlns="http://www.w3.org/2000/svg">
</g>
<g xmlns="http://www.w3.org/2000/svg">
</g>
<g xmlns="http://www.w3.org/2000/svg">
</g>
</g></svg>
