<?xml version="1.0"?>
<svg xmlns="http://www.w3.org/2000/svg" xmlns:xlink="http://www.w3.org/1999/xlink" xmlns:svgjs="http://svgjs.com/svgjs" version="1.1" width="512" height="512" x="0" y="0" viewBox="0 0 469.333 469.333" style="enable-background:new 0 0 512 512" xml:space="preserve"><g transform="matrix(0.8,0,0,0.8,46.93339843749999,46.93339843749999)">
<g xmlns="http://www.w3.org/2000/svg">
	<g>
		<g>
			<path d="M330.667,0h-256C51.093,0,32,19.093,32,42.667v298.667h42.667V42.667h256V0z" fill="#7c7c7c" data-original="#000000" style=""/>
			<path d="M394.667,85.333H160c-23.573,0-42.667,19.093-42.667,42.667v298.667c0,23.573,19.093,42.667,42.667,42.667h234.667     c23.573,0,42.667-19.093,42.667-42.667V128C437.333,104.427,418.24,85.333,394.667,85.333z M394.667,426.667H160V128h234.667     V426.667z" fill="#7c7c7c" data-original="#000000" style=""/>
		</g>
	</g>
</g>
<g xmlns="http://www.w3.org/2000/svg">
</g>
<g xmlns="http://www.w3.org/2000/svg">
</g>
<g xmlns="http://www.w3.org/2000/svg">
</g>
<g xmlns="http://www.w3.org/2000/svg">
</g>
<g xmlns="http://www.w3.org/2000/svg">
</g>
<g xmlns="http://www.w3.org/2000/svg">
</g>
<g xmlns="http://www.w3.org/2000/svg">
</g>
<g xmlns="http://www.w3.org/2000/svg">
</g>
<g xmlns="http://www.w3.org/2000/svg">
</g>
<g xmlns="http://www.w3.org/2000/svg">
</g>
<g xmlns="http://www.w3.org/2000/svg">
</g>
<g xmlns="http://www.w3.org/2000/svg">
</g>
<g xmlns="http://www.w3.org/2000/svg">
</g>
<g xmlns="http://www.w3.org/2000/svg">
</g>
<g xmlns="http://www.w3.org/2000/svg">
</g>
</g></svg>
