<?xml version="1.0"?>
<svg xmlns="http://www.w3.org/2000/svg" xmlns:xlink="http://www.w3.org/1999/xlink" xmlns:svgjs="http://svgjs.com/svgjs" version="1.1" width="512" height="512" x="0" y="0" viewBox="0 0 426.667 426.667" style="enable-background:new 0 0 512 512" xml:space="preserve"><g transform="matrix(0.8,0,0,0.8,42.66669921874998,42.66660156249998)">
<g xmlns="http://www.w3.org/2000/svg">
	<g>
		<g>
			<polygon points="362.667,21.333 234.667,149.333 277.333,192 426.667,42.667 426.667,21.333    " fill="#7c7c7c" data-original="#000000" style=""/>
			<path d="M170.667,85.333C170.667,38.187,132.48,0,85.333,0S0,38.187,0,85.333s38.187,85.333,85.333,85.333     c12.48,0,24.32-2.88,34.987-7.68l50.347,50.347L120.32,263.68c-10.667-4.8-22.507-7.68-34.987-7.68     C38.187,256,0,294.187,0,341.333s38.187,85.333,85.333,85.333s85.333-38.187,85.333-85.333c0-12.48-2.88-24.32-7.68-34.987     L213.333,256l149.333,149.333h64V384l-263.68-263.68C167.787,109.653,170.667,97.813,170.667,85.333z M85.333,128     c-23.573,0-42.667-19.093-42.667-42.667c0-23.573,19.093-42.667,42.667-42.667C108.907,42.667,128,61.76,128,85.333     C128,108.907,108.907,128,85.333,128z M85.333,384c-23.573,0-42.667-19.093-42.667-42.667c0-23.573,19.093-42.667,42.667-42.667     c23.573,0,42.667,19.093,42.667,42.667C128,364.907,108.907,384,85.333,384z M213.333,202.667c5.867,0,10.667,4.8,10.667,10.667     S219.2,224,213.333,224s-10.667-4.8-10.667-10.667S207.467,202.667,213.333,202.667z" fill="#7c7c7c" data-original="#000000" style=""/>
		</g>
	</g>
</g>
<g xmlns="http://www.w3.org/2000/svg">
</g>
<g xmlns="http://www.w3.org/2000/svg">
</g>
<g xmlns="http://www.w3.org/2000/svg">
</g>
<g xmlns="http://www.w3.org/2000/svg">
</g>
<g xmlns="http://www.w3.org/2000/svg">
</g>
<g xmlns="http://www.w3.org/2000/svg">
</g>
<g xmlns="http://www.w3.org/2000/svg">
</g>
<g xmlns="http://www.w3.org/2000/svg">
</g>
<g xmlns="http://www.w3.org/2000/svg">
</g>
<g xmlns="http://www.w3.org/2000/svg">
</g>
<g xmlns="http://www.w3.org/2000/svg">
</g>
<g xmlns="http://www.w3.org/2000/svg">
</g>
<g xmlns="http://www.w3.org/2000/svg">
</g>
<g xmlns="http://www.w3.org/2000/svg">
</g>
<g xmlns="http://www.w3.org/2000/svg">
</g>
</g></svg>
