<?xml version="1.0"?>
<svg xmlns="http://www.w3.org/2000/svg" xmlns:xlink="http://www.w3.org/1999/xlink" xmlns:svgjs="http://svgjs.com/svgjs" version="1.1" width="512" height="512" x="0" y="0" viewBox="0 0 333 333" style="enable-background:new 0 0 512 512" xml:space="preserve"><g transform="matrix(0.7,0,0,0.7,49.95,49.95)">
<g xmlns="http://www.w3.org/2000/svg">
	<g>
		<path d="M323,31.5H10c-5.5,0-10,4.5-10,10s4.5,10,10,10h313c5.5,0,10-4.5,10-10S328.5,31.5,323,31.5z" fill="#7c7c7c" data-original="#000000" style=""/>
	</g>
</g>
<g xmlns="http://www.w3.org/2000/svg">
	<g>
		<path d="M230,114.5H10c-5.5,0-10,4.5-10,10s4.5,10,10,10h220c5.5,0,10-4.5,10-10S235.5,114.5,230,114.5z" fill="#7c7c7c" data-original="#000000" style=""/>
	</g>
</g>
<g xmlns="http://www.w3.org/2000/svg">
	<g>
		<path d="M323,198.5H10c-5.5,0-10,4.5-10,10s4.5,10,10,10h313c5.5,0,10-4.5,10-10S328.5,198.5,323,198.5z" fill="#7c7c7c" data-original="#000000" style=""/>
	</g>
</g>
<g xmlns="http://www.w3.org/2000/svg">
	<g>
		<path d="M151,281.5H10c-5.5,0-10,4.5-10,10s4.5,10,10,10h141c5.5,0,10-4.5,10-10S156.5,281.5,151,281.5z" fill="#7c7c7c" data-original="#000000" style=""/>
	</g>
</g>
<g xmlns="http://www.w3.org/2000/svg">
</g>
<g xmlns="http://www.w3.org/2000/svg">
</g>
<g xmlns="http://www.w3.org/2000/svg">
</g>
<g xmlns="http://www.w3.org/2000/svg">
</g>
<g xmlns="http://www.w3.org/2000/svg">
</g>
<g xmlns="http://www.w3.org/2000/svg">
</g>
<g xmlns="http://www.w3.org/2000/svg">
</g>
<g xmlns="http://www.w3.org/2000/svg">
</g>
<g xmlns="http://www.w3.org/2000/svg">
</g>
<g xmlns="http://www.w3.org/2000/svg">
</g>
<g xmlns="http://www.w3.org/2000/svg">
</g>
<g xmlns="http://www.w3.org/2000/svg">
</g>
<g xmlns="http://www.w3.org/2000/svg">
</g>
<g xmlns="http://www.w3.org/2000/svg">
</g>
<g xmlns="http://www.w3.org/2000/svg">
</g>
</g></svg>
