<?xml version="1.0"?>
<svg xmlns="http://www.w3.org/2000/svg" xmlns:xlink="http://www.w3.org/1999/xlink" xmlns:svgjs="http://svgjs.com/svgjs" version="1.1" width="512" height="512" x="0" y="0" viewBox="0 0 512 512" style="enable-background:new 0 0 512 512" xml:space="preserve"><g transform="matrix(0.7,0,0,0.7,76.80000000000001,76.80000000000001)"><path xmlns="http://www.w3.org/2000/svg" d="m486.996094 64.382812-39.378906-39.378906c-16-16.023437-37.695313-25.003906-60.332032-25.003906h-328.617187c-32.40625 0-58.667969 26.261719-58.667969 58.667969v394.664062c0 32.40625 26.261719 58.667969 58.667969 58.667969h394.664062c32.40625 0 58.667969-26.261719 58.667969-58.667969v-328.617187c0-22.636719-8.980469-44.332032-25.003906-60.332032zm-401.664063 68.949219v-53.332031c0-8.832031 7.167969-16 16-16h224c8.832031 0 16 7.167969 16 16v53.332031c0 8.832031-7.167969 16-16 16h-224c-8.832031 0-16-7.167969-16-16zm170.667969 293.335938c-53.011719 0-96-42.988281-96-96 0-53.015625 42.988281-96 96-96s96 42.984375 96 96c0 53.011719-42.988281 96-96 96zm0 0" fill="#2993ff" data-original="#000000" style=""/></g></svg>
