<?xml version="1.0"?>
<svg xmlns="http://www.w3.org/2000/svg" xmlns:xlink="http://www.w3.org/1999/xlink" xmlns:svgjs="http://svgjs.com/svgjs" version="1.1" width="512" height="512" x="0" y="0" viewBox="0 0 512 512" style="enable-background:new 0 0 512 512" xml:space="preserve" class=""><g transform="matrix(0.8,0,0,0.8,51.20010299682616,51.19999999999999)">
<rect xmlns="http://www.w3.org/2000/svg" x="16.3" y="443.317" style="" width="478.699" height="68.683" fill="#ff0000" data-original="#00d7df" class=""/>
<path xmlns="http://www.w3.org/2000/svg" style="" d="M196.605,303.87H315.46l21.496,72.846h88.043L303.032,0h-94L87.339,376.715h88.041L196.605,303.87z   M255.133,101.984h1.544l39.362,133.203H216.03L255.133,101.984z" fill="#7c7c7c" data-original="#ff5023" class=""/>
<rect xmlns="http://www.w3.org/2000/svg" x="256.351" y="443.317" style="" width="239.35" height="68.683" fill="#ff0000" data-original="#00a1a7" class=""/>
<polygon xmlns="http://www.w3.org/2000/svg" style="" points="303.032,0 255.651,0 255.651,101.984 256.68,101.984 296.041,235.187 255.651,235.187   255.651,303.87 315.462,303.87 336.957,376.715 425.001,376.715 " fill="#7c7c7c" data-original="#bf3c1a" class=""/>
<g xmlns="http://www.w3.org/2000/svg">
</g>
<g xmlns="http://www.w3.org/2000/svg">
</g>
<g xmlns="http://www.w3.org/2000/svg">
</g>
<g xmlns="http://www.w3.org/2000/svg">
</g>
<g xmlns="http://www.w3.org/2000/svg">
</g>
<g xmlns="http://www.w3.org/2000/svg">
</g>
<g xmlns="http://www.w3.org/2000/svg">
</g>
<g xmlns="http://www.w3.org/2000/svg">
</g>
<g xmlns="http://www.w3.org/2000/svg">
</g>
<g xmlns="http://www.w3.org/2000/svg">
</g>
<g xmlns="http://www.w3.org/2000/svg">
</g>
<g xmlns="http://www.w3.org/2000/svg">
</g>
<g xmlns="http://www.w3.org/2000/svg">
</g>
<g xmlns="http://www.w3.org/2000/svg">
</g>
<g xmlns="http://www.w3.org/2000/svg">
</g>
</g></svg>
